<?xml version="1.0" standalone="no"?>
<!DOCTYPE svg PUBLIC "-//W3C//DTD SVG 20010904//EN"
 "http://www.w3.org/TR/2001/REC-SVG-20010904/DTD/svg10.dtd">
<svg version="1.0" xmlns="http://www.w3.org/2000/svg"
 width="512.000000pt" height="512.000000pt" viewBox="0 0 512.000000 512.000000"
 preserveAspectRatio="xMidYMid meet">
<metadata>
Created by potrace 1.14, written by Peter Selinger 2001-2017
</metadata>
<g transform="translate(0.000000,512.000000) scale(0.100000,-0.100000)"
fill="#000000" stroke="none">
<path d="M1180 5099 c0 -12 18 -60 39 -108 52 -116 54 -126 16 -127 -16 -1
-34 2 -40 6 -5 5 -32 10 -60 12 l-50 3 -11 -65 c-20 -122 -17 -117 -92 -140
-37 -11 -78 -22 -92 -24 -14 -3 -88 -20 -165 -39 -77 -19 -272 -65 -432 -103
l-293 -68 0 -74 c0 -68 2 -77 27 -100 l27 -25 -27 -19 -27 -20 0 -770 c0 -688
2 -769 15 -758 17 14 19 13 114 -77 30 -29 50 -53 43 -53 -7 0 -12 5 -12 10 0
6 -10 10 -22 10 -17 0 -20 -2 -9 -9 11 -7 -2 -25 -58 -80 -70 -69 -71 -71 -71
-121 l0 -52 65 7 c36 4 65 3 64 -1 0 -5 -29 -31 -64 -59 -53 -42 -64 -55 -65
-81 0 -16 4 -34 10 -40 6 -6 6 -30 0 -69 -5 -33 -10 -125 -10 -205 l0 -145 28
-17 c15 -10 22 -18 16 -18 -7 0 -15 -11 -18 -25 -4 -14 -11 -25 -16 -25 -6 0
-10 -166 -10 -461 0 -441 1 -461 19 -477 11 -10 22 -27 26 -39 5 -20 3 -23
-19 -23 l-26 0 0 -190 c0 -104 2 -190 4 -190 5 0 76 108 76 116 0 3 9 17 20
31 11 14 20 39 20 54 0 25 4 29 29 29 17 0 33 6 38 13 4 6 9 64 9 127 1 63 7
128 13 143 9 22 8 33 -5 52 -8 13 -22 26 -30 29 -8 3 -14 14 -14 25 0 19 -5
20 -44 15 -27 -4 -46 -2 -50 5 -5 7 2 9 23 5 20 -4 35 -1 45 9 14 13 14 16 0
21 -9 3 -25 6 -37 6 -20 0 -20 0 -1 -15 17 -13 17 -14 2 -15 -10 0 -18 5 -18
11 0 7 -10 9 -25 5 -14 -4 -25 -4 -25 -2 0 5 97 36 267 84 90 26 103 28 103
13 0 -15 78 -313 122 -464 l19 -69 34 6 c20 4 36 2 40 -4 4 -6 13 -9 21 -6 9
3 11 0 7 -11 -4 -11 -2 -14 5 -9 13 8 72 -23 72 -37 0 -5 -10 -6 -22 -2 -22 6
-22 6 -4 -9 14 -11 22 -13 27 -5 4 8 16 6 39 -6 31 -16 33 -16 47 4 11 16 21
20 41 15 15 -4 32 -10 37 -14 6 -4 46 -22 89 -39 55 -22 81 -28 86 -21 5 8 9
7 13 -3 3 -8 24 -18 46 -22 23 -4 43 -11 47 -16 3 -5 10 -7 15 -3 15 9 0 24
-24 24 -22 1 -22 1 3 20 42 34 44 35 70 47 17 8 20 12 9 12 -12 1 -18 12 -21
41 -2 22 0 40 5 40 4 0 6 4 3 8 -3 5 21 34 52 65 l57 56 159 -155 c87 -85 162
-154 166 -154 14 0 19 27 8 38 -8 8 -3 13 15 18 15 3 24 11 21 16 -7 10 22 8
91 -6 17 -4 66 -13 110 -22 44 -8 100 -21 125 -29 25 -8 73 -19 108 -26 39 -7
62 -17 62 -25 0 -7 -9 -51 -19 -96 -10 -46 -22 -102 -26 -125 l-7 -43 414 0
c313 0 417 3 426 12 10 10 17 10 32 0 14 -8 75 -12 201 -12 l180 0 -5 151 c-2
82 -1 149 3 147 5 -2 77 -69 161 -150 l152 -148 704 0 704 0 0 323 0 322 -36
23 c-22 15 -32 27 -27 35 4 7 9 57 9 112 2 99 16 161 33 151 5 -3 12 1 15 10
3 9 6 450 6 981 l0 965 -22 19 c-13 10 -31 18 -40 19 -24 0 -48 11 -48 21 0 5
11 27 25 49 14 22 25 46 25 53 0 8 -47 71 -105 140 -101 123 -117 149 -95 162
17 10 110 125 110 135 0 5 -7 7 -15 4 -8 -4 -30 1 -48 9 -17 8 -67 18 -110 22
-50 5 -80 12 -84 21 -4 12 61 192 75 206 4 3 72 -21 152 -54 80 -33 153 -62
163 -65 16 -5 17 28 17 587 l0 592 -42 -7 c-31 -4 -39 -3 -28 4 8 6 10 11 5
11 -6 0 -15 -4 -20 -9 -12 -11 -155 -19 -155 -9 0 4 26 9 58 11 l57 3 -60 3
c-44 2 -55 5 -40 11 19 8 19 9 -3 9 -23 1 -23 1 -16 106 6 95 5 105 -11 105
-9 0 -19 9 -22 20 -5 20 -14 20 -740 20 l-734 0 6 -52 c3 -29 2 -47 -1 -40 -3
6 -11 12 -18 12 -8 0 -38 9 -67 21 -30 12 -63 25 -74 29 -11 4 -33 13 -48 19
-37 15 -84 14 -90 -1 -4 -10 -6 -10 -6 0 -1 16 -771 18 -788 1 -8 -8 -17 -8
-31 0 -13 7 -88 11 -196 11 -151 0 -176 -2 -176 -15 0 -17 -36 -34 -65 -32
-12 1 -21 -9 -29 -31 -7 -19 -19 -38 -29 -43 -9 -6 -17 -17 -17 -24 0 -8 -4
-15 -10 -15 -5 0 -10 -15 -10 -34 0 -39 -18 -96 -31 -96 -5 0 -9 -13 -9 -30 0
-20 -5 -30 -15 -30 -8 0 -17 -12 -21 -27 -3 -16 -10 -43 -16 -62 -13 -42 -2
-179 18 -228 9 -19 13 -41 10 -48 -3 -8 5 -11 27 -9 23 3 28 1 17 -5 -8 -6
-18 -7 -22 -5 -4 3 -20 -1 -35 -9 -16 -8 -52 -24 -82 -36 -61 -23 -61 -23 -81
43 -7 22 -18 57 -25 76 -8 19 -39 116 -71 215 -31 99 -60 185 -64 190 -4 6
-17 44 -30 85 -13 41 -27 80 -31 85 -4 6 -10 27 -14 48 -6 33 -11 37 -36 37
-23 0 -29 -4 -29 -21z m3677 -105 c-3 -3 -12 -4 -19 -1 -8 3 -5 6 6 6 11 1 17
-2 13 -5z m-3710 -250 c-3 -3 -12 -4 -19 -1 -8 3 -5 6 6 6 11 1 17 -2 13 -5z
m3095 -343 c190 -72 204 -297 29 -449 -31 -27 -112 -91 -181 -143 l-125 -94
218 -3 217 -2 0 -75 0 -75 -360 0 -360 0 0 23 c1 80 107 198 327 363 171 129
198 159 198 221 0 80 -81 130 -188 116 -57 -7 -90 -31 -118 -85 l-21 -41 -60
7 c-34 3 -74 6 -89 6 -35 0 -36 10 -5 76 46 99 112 151 219 174 72 15 235 5
299 -19z m-4152 -132 c0 -6 -4 -7 -10 -4 -5 3 -10 11 -10 16 0 6 5 7 10 4 6
-3 10 -11 10 -16z m37 15 c-3 -3 -12 -4 -19 -1 -8 3 -5 6 6 6 11 1 17 -2 13
-5z m699 -60 c-2 -6 -19 -71 -37 -145 -18 -74 -34 -128 -36 -121 -3 6 -9 10
-14 6 -5 -3 -9 1 -9 8 0 7 -20 29 -44 48 -25 19 -50 45 -57 58 -7 12 -16 22
-21 22 -15 0 -8 26 12 40 14 10 16 16 7 22 -9 6 -9 12 1 28 6 11 12 29 12 40
0 14 7 20 23 21 l22 0 -22 9 c-44 18 -22 16 72 -4 59 -13 94 -25 91 -32z
m1774 -289 c195 -26 342 -76 491 -166 241 -144 429 -386 520 -666 12 -40 21
-75 18 -77 -6 -7 -381 -96 -401 -96 -9 0 -20 17 -27 43 -22 73 -87 203 -142
283 -73 105 -164 185 -274 238 -131 64 -193 78 -385 83 -142 4 -180 2 -270
-17 -185 -37 -324 -109 -456 -233 -151 -143 -235 -298 -294 -551 -80 -334 -63
-757 41 -1068 101 -302 271 -486 549 -596 278 -110 612 -88 855 54 51 31 110
78 165 133 122 123 196 259 253 460 15 55 27 81 37 81 17 0 401 -97 406 -103
6 -6 -42 -165 -72 -237 -185 -457 -525 -732 -998 -807 -138 -22 -480 -13 -617
15 -468 98 -780 368 -962 832 -93 236 -135 452 -144 725 -11 358 42 634 177
910 136 281 329 475 607 614 159 79 286 115 543 154 63 10 285 5 380 -8z
m-1853 -17 c-3 -8 -6 -5 -6 6 -1 11 2 17 5 13 3 -3 4 -12 1 -19z m-10 -40 c-3
-8 -6 -5 -6 6 -1 11 2 17 5 13 3 -3 4 -12 1 -19z m-670 -3284 c-3 -3 -12 -4
-19 -1 -8 3 -5 6 6 6 11 1 17 -2 13 -5z m43 -30 c0 -2 -7 -4 -15 -4 -8 0 -15
4 -15 10 0 5 7 7 15 4 8 -4 15 -8 15 -10z m2936 -528 c0 -14 -5 -21 -9 -17 -4
4 -5 15 -1 24 9 24 12 21 10 -7z"/>
<path d="M1745 230 c3 -5 8 -10 11 -10 2 0 4 5 4 10 0 6 -5 10 -11 10 -5 0 -7
-4 -4 -10z"/>
<path d="M1133 23 c-24 -9 -13 -23 17 -23 22 0 28 4 24 15 -6 15 -19 18 -41 8z"/>
</g>
</svg>
